<?xml version="1.0" encoding="utf-8"?>
<!-- Generator: Adobe Illustrator 25.2.1, SVG Export Plug-In . SVG Version: 6.00 Build 0)  -->
<svg version="1.1" id="Layer_1" xmlns="http://www.w3.org/2000/svg" xmlns:xlink="http://www.w3.org/1999/xlink" x="0px" y="0px"
	 viewBox="0 0 512 512" style="enable-background:new 0 0 512 512;" xml:space="preserve">
<style type="text/css">
	.st0{fill:#1A1A1A;}
	.st1{fill:#FFFFFF;}
	.st2{fill:#00FFBF;}
</style>
<g id="Layer_1_1_" focusable="false">
	<circle class="st0" cx="256" cy="256" r="244.5"/>
</g>
<g id="Layer_2_1_">
	<g>
		<path class="st1" d="M136.8,371.5c-10-11.1-15.1-27.1-15.1-48v-14.7H160v17.6c0,16.7,7,25,21,25c6.8,0,12.1-2.1,15.6-6.1
			c3.5-4,5.3-10.6,5.3-19.7c0-10.8-2.5-20.3-7.4-28.5c-4.9-8.2-13.9-18-27.2-29.6c-16.7-14.7-28.3-28-34.9-39.9
			c-6.6-11.9-9.9-25.3-9.9-40.2c0-20.4,5.1-36.1,15.4-47.2c10.3-11.1,25.2-16.7,44.8-16.7c19.3,0,33.9,5.6,43.9,16.7
			c9.9,11.1,14.9,27.1,14.9,48V199h-38.2v-13.3c0-8.8-1.7-15.2-5.1-19.3c-3.4-4-8.5-6.1-15.1-6.1c-13.5,0-20.2,8.2-20.2,24.6
			c0,9.3,2.5,18,7.5,26.1c5,8.1,14.1,17.9,27.4,29.4c16.9,14.7,28.6,28,34.9,40s9.6,26.1,9.6,42.2c0,21-5.2,37.2-15.6,48.5
			s-25.6,16.9-45.4,16.9C161.7,388.3,146.8,382.7,136.8,371.5z"/>
		<path class="st2" d="M265.4,127.4h61c20.8,0,36,4.9,45.6,14.5c9.6,9.7,14.4,24.5,14.4,44.6v10.3c0,13.3-2.1,24-6.4,32.3
			c-4.3,8.3-10.9,14.4-19.7,18v0.8c20.1,6.8,30.1,24.7,30.1,53.6v22.1c0,19.8-5.2,35-15.6,45.4c-10.4,10.4-25.7,15.6-45.8,15.6
			h-63.5V127.4z M321.6,232.1c8.1,0,14.1-2.1,18.2-6.2c4-4.2,6.1-11.1,6.1-21v-14.4c0-9.3-1.6-16.1-5-20.2
			c-3.3-4.2-8.6-6.2-15.6-6.2h-19.5v68L321.6,232.1L321.6,232.1z M329,347.8c7.1,0,12.4-1.9,15.8-5.7c3.4-3.8,5.1-10.3,5.1-19.7V300
			c0-11.7-2.1-19.9-6.1-24.5c-4-4.5-10.7-6.8-20-6.8h-18v79L329,347.8L329,347.8z"/>
	</g>
</g>
</svg>
