<?xml version="1.0" encoding="utf-8"?>
<!-- Generator: Adobe Illustrator 25.2.1, SVG Export Plug-In . SVG Version: 6.00 Build 0)  -->
<svg version="1.1" xmlns="http://www.w3.org/2000/svg" xmlns:xlink="http://www.w3.org/1999/xlink" x="0px" y="0px"
	 viewBox="0 0 512 512" style="enable-background:new 0 0 512 512;" xml:space="preserve">
<style type="text/css">
	.st0{fill:#1A1A1A;}
	.st1{fill:#FFFFFF;}
	.st2{fill:#00FFBF;}
</style>
<g id="Layer_1" focusable="false">
	<circle class="st0" cx="256" cy="256" r="244.5"/>
</g>
<g id="Layer_2">
	<g>
		<path class="st1" d="M116.6,391.1c-11.7-13-17.6-31.7-17.6-56.1v-17.2h44.7v20.6c0,19.5,8.2,29.2,24.5,29.2c8,0,14.1-2.4,18.3-7.1
			c4.1-4.7,6.2-12.4,6.2-23c0-12.6-2.9-23.7-8.6-33.3c-5.7-9.6-16.3-21.1-31.8-34.6c-19.5-17.2-33.1-32.7-40.8-46.6
			c-7.7-13.9-11.6-29.6-11.6-47c0-23.8,6-42.2,18-55.2c12-13,29.5-19.5,52.4-19.5c22.6,0,39.7,6.5,51.3,19.5
			c11.6,13,17.4,31.7,17.4,56.1v12.5h-44.7v-15.5c0-10.3-2-17.8-6-22.6c-4-4.7-9.9-7.1-17.6-7.1c-15.8,0-23.6,9.6-23.6,28.8
			c0,10.9,2.9,21.1,8.8,30.5c5.9,9.5,16.5,20.9,32,34.4c19.8,17.2,33.4,32.8,40.8,46.8c7.4,14,11.2,30.5,11.2,49.4
			c0,24.6-6.1,43.5-18.3,56.7c-12.2,13.2-29.9,19.8-53.1,19.8C145.7,410.7,128.3,404.2,116.6,391.1z"/>
		<path class="st2" d="M267,105.6h71.3c24.3,0,42.1,5.7,53.3,17c11.2,11.3,16.8,28.7,16.8,52.2v12c0,15.5-2.5,28.1-7.5,37.8
			c-5,9.7-12.7,16.8-23,21.1v0.9c23.5,8,35.2,28.9,35.2,62.7v25.8c0,23.2-6.1,40.9-18.3,53.1c-12.2,12.2-30,18.3-53.5,18.3H267
			V105.6z M332.7,228.1c9.5,0,16.5-2.4,21.3-7.3c4.7-4.9,7.1-13,7.1-24.5v-16.8c0-10.9-1.9-18.8-5.8-23.6c-3.9-4.9-10-7.3-18.3-7.3
			h-22.8v79.5H332.7z M341.3,363.4c8.3,0,14.5-2.2,18.5-6.7c4-4.4,6-12.1,6-23v-26.2c0-13.7-2.4-23.3-7.1-28.6
			c-4.7-5.3-12.5-7.9-23.4-7.9h-21.1v92.4H341.3z"/>
	</g>
</g>
</svg>
